<svg xmlns="http://www.w3.org/2000/svg" xmlns:xlink="http://www.w3.org/1999/xlink" contentStyleType="text/css" data-diagram-type="DESCRIPTION" height="402px" preserveAspectRatio="none" style="width:454px;height:402px;background:#FFFFFF;" version="1.1" viewBox="0 0 454 402" width="454px" zoomAndPan="magnify"><defs/><g><!--cluster Application Layer--><g class="cluster" data-entity="Application Layer" data-source-line="2" data-uid="ent0002" id="cluster_Application Layer"><path d="M8.5,6 L147.5654,6 A3.75,3.75 0 0 1 150.0654,8.5 L157.0654,28.2969 L444.5,28.2969 A2.5,2.5 0 0 1 447,30.7969 L447,100.8 A2.5,2.5 0 0 1 444.5,103.3 L8.5,103.3 A2.5,2.5 0 0 1 6,100.8 L6,8.5 A2.5,2.5 0 0 1 8.5,6" fill="none" style="stroke:#000000;stroke-width:1.5;"/><line style="stroke:#000000;stroke-width:1.5;" x1="6" x2="157.0654" y1="28.2969" y2="28.2969"/><text fill="#000000" font-family="sans-serif" font-size="14" font-weight="bold" lengthAdjust="spacing" textLength="138.0654" x="10" y="20.9951">Application Layer</text></g><!--cluster Protocol Layer--><g class="cluster" data-entity="Protocol Layer" data-source-line="7" data-uid="ent0005" id="cluster_Protocol Layer"><path d="M42.5,152.3 L158.0771,152.3 A3.75,3.75 0 0 1 160.5771,154.8 L167.5771,174.5969 L417.5,174.5969 A2.5,2.5 0 0 1 420,177.0969 L420,247.09 A2.5,2.5 0 0 1 417.5,249.59 L42.5,249.59 A2.5,2.5 0 0 1 40,247.09 L40,154.8 A2.5,2.5 0 0 1 42.5,152.3" fill="none" style="stroke:#000000;stroke-width:1.5;"/><line style="stroke:#000000;stroke-width:1.5;" x1="40" x2="167.5771" y1="174.5969" y2="174.5969"/><text fill="#000000" font-family="sans-serif" font-size="14" font-weight="bold" lengthAdjust="spacing" textLength="114.5771" x="44" y="167.2951">Protocol Layer</text></g><!--cluster Transport Layer--><g class="cluster" data-entity="Transport Layer" data-source-line="12" data-uid="ent0008" id="cluster_Transport Layer"><path d="M148.5,298.59 L275.7051,298.59 A3.75,3.75 0 0 1 278.2051,301.09 L285.2051,320.8869 L321.5,320.8869 A2.5,2.5 0 0 1 324,323.3869 L324,393.39 A2.5,2.5 0 0 1 321.5,395.89 L148.5,395.89 A2.5,2.5 0 0 1 146,393.39 L146,301.09 A2.5,2.5 0 0 1 148.5,298.59" fill="none" style="stroke:#000000;stroke-width:1.5;"/><line style="stroke:#000000;stroke-width:1.5;" x1="146" x2="285.2051" y1="320.8869" y2="320.8869"/><text fill="#000000" font-family="sans-serif" font-size="14" font-weight="bold" lengthAdjust="spacing" textLength="126.2051" x="150" y="313.5851">Transport Layer</text></g><!--entity PA--><g class="entity" data-entity="PA" data-source-line="3" data-uid="ent0003" id="entity_PA"><rect fill="#F1F1F1" height="46.2969" rx="2.5" ry="2.5" style="stroke:#181818;stroke-width:0.5;" width="180.8682" x="21.57" y="41"/><rect fill="#F1F1F1" height="10" style="stroke:#181818;stroke-width:0.5;" width="15" x="182.4382" y="46"/><rect fill="#F1F1F1" height="2" style="stroke:#181818;stroke-width:0.5;" width="4" x="180.4382" y="48"/><rect fill="#F1F1F1" height="2" style="stroke:#181818;stroke-width:0.5;" width="4" x="180.4382" y="52"/><text fill="#000000" font-family="sans-serif" font-size="14" lengthAdjust="spacing" textLength="140.8682" x="36.57" y="73.9951">Provider Application</text></g><!--entity CA--><g class="entity" data-entity="CA" data-source-line="4" data-uid="ent0004" id="entity_CA"><rect fill="#F1F1F1" height="46.2969" rx="2.5" ry="2.5" style="stroke:#181818;stroke-width:0.5;" width="194.0615" x="236.97" y="41"/><rect fill="#F1F1F1" height="10" style="stroke:#181818;stroke-width:0.5;" width="15" x="411.0315" y="46"/><rect fill="#F1F1F1" height="2" style="stroke:#181818;stroke-width:0.5;" width="4" x="409.0315" y="48"/><rect fill="#F1F1F1" height="2" style="stroke:#181818;stroke-width:0.5;" width="4" x="409.0315" y="52"/><text fill="#000000" font-family="sans-serif" font-size="14" lengthAdjust="spacing" textLength="154.0615" x="251.97" y="73.9951">Consumer Application</text></g><!--entity PP--><g class="entity" data-entity="PP" data-source-line="8" data-uid="ent0006" id="entity_PP"><rect fill="#F1F1F1" height="46.2969" rx="2.5" ry="2.5" style="stroke:#181818;stroke-width:0.5;" width="156.5459" x="55.73" y="187.3"/><rect fill="#F1F1F1" height="10" style="stroke:#181818;stroke-width:0.5;" width="15" x="192.2759" y="192.3"/><rect fill="#F1F1F1" height="2" style="stroke:#181818;stroke-width:0.5;" width="4" x="190.2759" y="194.3"/><rect fill="#F1F1F1" height="2" style="stroke:#181818;stroke-width:0.5;" width="4" x="190.2759" y="198.3"/><text fill="#000000" font-family="sans-serif" font-size="14" lengthAdjust="spacing" textLength="116.5459" x="70.73" y="220.2951">Protocol Handler</text></g><!--entity CP--><g class="entity" data-entity="CP" data-source-line="9" data-uid="ent0007" id="entity_CP"><rect fill="#F1F1F1" height="46.2969" rx="2.5" ry="2.5" style="stroke:#181818;stroke-width:0.5;" width="156.5459" x="247.73" y="187.3"/><rect fill="#F1F1F1" height="10" style="stroke:#181818;stroke-width:0.5;" width="15" x="384.2759" y="192.3"/><rect fill="#F1F1F1" height="2" style="stroke:#181818;stroke-width:0.5;" width="4" x="382.2759" y="194.3"/><rect fill="#F1F1F1" height="2" style="stroke:#181818;stroke-width:0.5;" width="4" x="382.2759" y="198.3"/><text fill="#000000" font-family="sans-serif" font-size="14" lengthAdjust="spacing" textLength="116.5459" x="262.73" y="220.2951">Protocol Handler</text></g><!--entity TL--><g class="entity" data-entity="TL" data-source-line="13" data-uid="ent0009" id="entity_TL"><rect fill="#F1F1F1" height="46.2969" rx="2.5" ry="2.5" style="stroke:#181818;stroke-width:0.5;" width="145.2871" x="162.36" y="333.59"/><rect fill="#F1F1F1" height="10" style="stroke:#181818;stroke-width:0.5;" width="15" x="287.6471" y="338.59"/><rect fill="#F1F1F1" height="2" style="stroke:#181818;stroke-width:0.5;" width="4" x="285.6471" y="340.59"/><rect fill="#F1F1F1" height="2" style="stroke:#181818;stroke-width:0.5;" width="4" x="285.6471" y="344.59"/><text fill="#000000" font-family="sans-serif" font-size="14" lengthAdjust="spacing" textLength="105.2871" x="177.36" y="366.5851">TCP/UDP/Serial</text></g><!--link PA to PP--><g class="link" data-entity-1="PA" data-entity-2="PP" data-source-line="16" data-uid="lnk10" id="link_PA_PP"><path d="M115.44,87.69 C119.57,114.8 125.5541,154.0888 129.6841,181.1288" fill="none" id="PA-to-PP" style="stroke:#181818;stroke-width:1;"/><polygon fill="#181818" points="130.59,187.06,133.1853,177.5592,129.8351,182.1173,125.277,178.7671,130.59,187.06" style="stroke:#181818;stroke-width:1;"/><text fill="#000000" font-family="sans-serif" font-size="13" lengthAdjust="spacing" textLength="100.3691" x="124" y="132.3669">Data messages</text></g><!--link PP to TL--><g class="link" data-entity-1="PP" data-entity-2="TL" data-source-line="17" data-uid="lnk11" id="link_PP_TL"><path d="M140.67,234.02 C145.57,248.59 153.1,267.55 163,282.59 C175.44,301.49 188.8271,315.5965 203.6271,329.0965" fill="none" id="PP-to-TL" style="stroke:#181818;stroke-width:1;"/><polygon fill="#181818" points="208.06,333.14,204.1064,324.1195,204.366,329.7704,198.7151,330.03,208.06,333.14" style="stroke:#181818;stroke-width:1;"/><text fill="#000000" font-family="sans-serif" font-size="13" lengthAdjust="spacing" textLength="110.9507" x="164" y="278.6569">Encoded packets</text></g><!--link TL to CP--><g class="link" data-entity-1="TL" data-entity-2="CP" data-source-line="18" data-uid="lnk12" id="link_TL_CP"><path d="M249.12,333.35 C266.17,306.32 291.4903,266.1756 308.5803,239.0656" fill="none" id="TL-to-CP" style="stroke:#181818;stroke-width:1;"/><polygon fill="#181818" points="311.78,233.99,303.5967,239.4704,309.1136,238.2197,310.3643,243.7366,311.78,233.99" style="stroke:#181818;stroke-width:1;"/><text fill="#000000" font-family="sans-serif" font-size="13" lengthAdjust="spacing" textLength="133.8784" x="292" y="278.6569">Transmitted packets</text></g><!--link CP to CA--><g class="link" data-entity-1="CP" data-entity-2="CA" data-source-line="19" data-uid="lnk13" id="link_CP_CA"><path d="M327.24,187.06 C328.74,160.02 330.9185,120.7908 332.4185,93.6808" fill="none" id="CP-to-CA" style="stroke:#181818;stroke-width:1;"/><polygon fill="#181818" points="332.75,87.69,328.2589,96.4553,332.4738,92.6824,336.2467,96.8972,332.75,87.69" style="stroke:#181818;stroke-width:1;"/><text fill="#000000" font-family="sans-serif" font-size="13" lengthAdjust="spacing" textLength="113.5024" x="331" y="132.3669">Parsed messages</text></g><!--SRC=[TOqn2y8m44Rt_8h3lNHt448gE7G862TnE98WmJG9IHH4_EycBKehkdxlthk0ye9d3IiQWZKIi_4EUhphk8870JZow6z6wGYpWnDW0auhPjwbw_03CqgUX8HtlcIobzv-jwTnXqvP7QSk_uiONpH5H9U2ZtaH5OotXuwtUnqDsj4JVVKuXQRPb3wieSECCEYKIYYHCbKY-aAsJdgb5TGlEYTInifOjSQ7WybvnjdaCbeunvWA-dHV]--></g></svg>