<svg xmlns="http://www.w3.org/2000/svg" xmlns:xlink="http://www.w3.org/1999/xlink" contentStyleType="text/css" data-diagram-type="STATE" height="524px" preserveAspectRatio="none" style="width:653px;height:524px;background:#FFFFFF;" version="1.1" viewBox="0 0 653 524" width="653px" zoomAndPan="magnify"><defs/><g><ellipse cx="374.02" cy="16" fill="#222222" rx="10" ry="10" style="stroke:#222222;stroke-width:1;"/><g id="Idle"><rect fill="#F1F1F1" height="50" rx="12.5" ry="12.5" style="stroke:#181818;stroke-width:0.5;" width="50" x="349.02" y="87"/><line style="stroke:#181818;stroke-width:0.5;" x1="349.02" x2="399.02" y1="113.2969" y2="113.2969"/><text fill="#000000" font-family="sans-serif" font-size="14" lengthAdjust="spacing" textLength="25.5186" x="361.2607" y="104.9951">Idle</text></g><g id="Active"><rect fill="#F1F1F1" height="50" rx="12.5" ry="12.5" style="stroke:#181818;stroke-width:0.5;" width="63.5518" x="169.24" y="214"/><line style="stroke:#181818;stroke-width:0.5;" x1="169.24" x2="232.7918" y1="240.2969" y2="240.2969"/><text fill="#000000" font-family="sans-serif" font-size="14" lengthAdjust="spacing" textLength="43.5518" x="179.24" y="231.9951">Active</text></g><g id="Error"><rect fill="#F1F1F1" height="50" rx="12.5" ry="12.5" style="stroke:#181818;stroke-width:0.5;" width="54.6787" x="270.68" y="468"/><line style="stroke:#181818;stroke-width:0.5;" x1="270.68" x2="325.3587" y1="494.2969" y2="494.2969"/><text fill="#000000" font-family="sans-serif" font-size="14" lengthAdjust="spacing" textLength="34.6787" x="280.68" y="485.9951">Error</text></g><g id="Transmitting"><rect fill="#F1F1F1" height="50" rx="12.5" ry="12.5" style="stroke:#181818;stroke-width:0.5;" width="109.209" x="146.41" y="341"/><line style="stroke:#181818;stroke-width:0.5;" x1="146.41" x2="255.619" y1="367.2969" y2="367.2969"/><text fill="#000000" font-family="sans-serif" font-size="14" lengthAdjust="spacing" textLength="89.209" x="156.41" y="358.9951">Transmitting</text></g><g class="entity" data-entity="GMN2" data-source-line="13" data-uid="ent0003" id="entity_GMN2"><path d="M433.52,91.87 L433.52,108 L399.42,112 L433.52,116 L433.52,132.1356 A0,0 0 0 0 433.52,132.1356 L620.5112,132.1356 A0,0 0 0 0 620.5112,132.1356 L620.5112,101.87 L610.5112,91.87 L433.52,91.87 A0,0 0 0 0 433.52,91.87" fill="#FEFFDD" style="stroke:#181818;stroke-width:0.5;"/><path d="M610.5112,91.87 L610.5112,101.87 L620.5112,101.87 L610.5112,91.87" fill="#FEFFDD" style="stroke:#181818;stroke-width:0.5;"/><text fill="#000000" font-family="sans-serif" font-size="13" lengthAdjust="spacing" textLength="165.9912" x="439.52" y="108.9369">No active communication</text><text fill="#000000" font-family="sans-serif" font-size="13" lengthAdjust="spacing" textLength="147.3989" x="439.52" y="124.0697">Waiting for connection</text></g><g class="entity" data-entity="GMN5" data-source-line="18" data-uid="ent0006" id="entity_GMN5"><path d="M267.91,218.87 L267.91,235 L233.29,239 L267.91,243 L267.91,259.1356 A0,0 0 0 0 267.91,259.1356 L458.1322,259.1356 A0,0 0 0 0 458.1322,259.1356 L458.1322,228.87 L448.1322,218.87 L267.91,218.87 A0,0 0 0 0 267.91,218.87" fill="#FEFFDD" style="stroke:#181818;stroke-width:0.5;"/><path d="M448.1322,218.87 L448.1322,228.87 L458.1322,228.87 L448.1322,218.87" fill="#FEFFDD" style="stroke:#181818;stroke-width:0.5;"/><text fill="#000000" font-family="sans-serif" font-size="13" lengthAdjust="spacing" textLength="152.2612" x="273.91" y="235.9369">Connection established</text><text fill="#000000" font-family="sans-serif" font-size="13" lengthAdjust="spacing" textLength="169.2222" x="273.91" y="251.0697">Ready to transmit/receive</text></g><g class="entity" data-entity="GMN8" data-source-line="23" data-uid="ent0009" id="entity_GMN8"><path d="M360.22,472.87 L360.22,489 L325.63,493 L360.22,497 L360.22,513.1356 A0,0 0 0 0 360.22,513.1356 L539.8225,513.1356 A0,0 0 0 0 539.8225,513.1356 L539.8225,482.87 L529.8225,472.87 L360.22,472.87 A0,0 0 0 0 360.22,472.87" fill="#FEFFDD" style="stroke:#181818;stroke-width:0.5;"/><path d="M529.8225,472.87 L529.8225,482.87 L539.8225,482.87 L529.8225,472.87" fill="#FEFFDD" style="stroke:#181818;stroke-width:0.5;"/><text fill="#000000" font-family="sans-serif" font-size="13" lengthAdjust="spacing" textLength="158.6025" x="366.22" y="489.9369">Fault condition detected</text><text fill="#000000" font-family="sans-serif" font-size="13" lengthAdjust="spacing" textLength="134.5068" x="366.22" y="505.0697">Attempting recovery</text></g><!--link *start* to Idle--><g class="link" data-entity-1=".start." data-entity-2="Idle" data-source-line="1" data-uid="lnk4" id="link_.start._Idle"><path d="M374.02,26.36 C374.02,40.29 374.02,60.95 374.02,80.65" fill="none" id="*start*-to-Idle" style="stroke:#181818;stroke-width:1;"/><polygon fill="#181818" points="374.02,86.65,378.02,77.65,374.02,81.65,370.02,77.65,374.02,86.65" style="stroke:#181818;stroke-width:1;"/></g><!--link Idle to Active--><g class="link" data-entity-1="Idle" data-entity-2="Active" data-source-line="3" data-uid="lnk6" id="link_Idle_Active"><path d="M348.7,112.19 C309.01,112.46 233.07,119.58 198.02,167 C188.26,180.2 188.1135,192.9908 191.5135,207.8708" fill="none" id="Idle-to-Active" style="stroke:#181818;stroke-width:1;"/><polygon fill="#181818" points="192.85,213.72,194.7447,204.0551,191.7362,208.8456,186.9457,205.8371,192.85,213.72" style="stroke:#181818;stroke-width:1;"/><text fill="#000000" font-family="sans-serif" font-size="13" lengthAdjust="spacing" textLength="131.0791" x="199.02" y="180.0669">Connection Request</text></g><!--link Active to Idle--><g class="link" data-entity-1="Active" data-entity-2="Idle" data-source-line="4" data-uid="lnk7" id="link_Active_Idle"><path d="M233.19,221.58 C238.75,218.94 244.51,216.31 250.02,214 C286.96,198.5 304.48,209.93 335.02,184 C349.49,171.71 357.2592,158.1896 363.5392,142.9096" fill="none" id="Active-to-Idle" style="stroke:#181818;stroke-width:1;"/><polygon fill="#181818" points="365.82,137.36,358.699,144.1638,363.9193,141.9846,366.0984,147.2049,365.82,137.36" style="stroke:#181818;stroke-width:1;"/><text fill="#000000" font-family="sans-serif" font-size="13" lengthAdjust="spacing" textLength="72.2173" x="351.02" y="180.0669">Disconnect</text></g><!--link Active to Error--><g class="link" data-entity-1="Active" data-entity-2="Error" data-source-line="5" data-uid="lnk9" id="link_Active_Error"><path d="M169,243.94 C135.66,249.6 83.81,263.02 51.02,294 C19.02,324.23 6,354.78 31.02,391 C86.37,471.12 208.0709,487.3887 264.4309,490.7887" fill="none" id="Active-to-Error" style="stroke:#181818;stroke-width:1;"/><polygon fill="#181818" points="270.42,491.15,261.6772,486.6153,265.4291,490.8489,261.1955,494.6008,270.42,491.15" style="stroke:#181818;stroke-width:1;"/><text fill="#000000" font-family="sans-serif" font-size="13" lengthAdjust="spacing" textLength="96.1226" x="32.02" y="370.5669">Fault Detected</text></g><!--link Error to Active--><g class="link" data-entity-1="Error" data-entity-2="Active" data-source-line="6" data-uid="lnk10" id="link_Error_Active"><path d="M325.67,474.1 C337.36,464.88 349.7,452.51 356.02,438 C381.56,379.32 394.62,345.05 356.02,294 C326.48,254.95 295.74,281.51 250.02,264 C244.44,261.87 244.0849,261.8721 238.5049,259.2621" fill="none" id="Error-to-Active" style="stroke:#181818;stroke-width:1;"/><polygon fill="#181818" points="233.07,256.72,239.5275,264.1564,237.599,258.8384,242.917,256.9099,233.07,256.72" style="stroke:#181818;stroke-width:1;"/><text fill="#000000" font-family="sans-serif" font-size="13" lengthAdjust="spacing" textLength="133.7515" x="382.02" y="370.5669">Recovery Successful</text></g><!--link Error to Idle--><g class="link" data-entity-1="Error" data-entity-2="Idle" data-source-line="7" data-uid="lnk11" id="link_Error_Idle"><path d="M325.43,476.89 C331.19,473.85 337.27,470.75 343.02,468 C421.88,430.28 475.8,463.92 524.02,391 C585.12,298.6 461.055,182.7156 404.035,136.3456" fill="none" id="Error-to-Idle" style="stroke:#181818;stroke-width:1;"/><polygon fill="#181818" points="399.38,132.56,403.8388,141.3417,403.2592,135.7147,408.8863,135.135,399.38,132.56" style="stroke:#181818;stroke-width:1;"/><text fill="#000000" font-family="sans-serif" font-size="13" lengthAdjust="spacing" textLength="107.8467" x="538.02" y="307.0669">Reset Command</text></g><!--link Active to Transmitting--><g class="link" data-entity-1="Active" data-entity-2="Transmitting" data-source-line="8" data-uid="lnk13" id="link_Active_Transmitting"><path d="M168.75,242.41 C135.68,246.81 85.85,259.17 62.02,294 C57.75,300.24 57.75,304.76 62.02,311 C72.11,325.74 105.9612,338.5622 140.3312,348.8322" fill="none" id="Active-to-Transmitting" style="stroke:#181818;stroke-width:1;"/><polygon fill="#181818" points="146.08,350.55,138.6019,344.1407,141.2893,349.1185,136.3115,351.8059,146.08,350.55" style="stroke:#181818;stroke-width:1;"/><text fill="#000000" font-family="sans-serif" font-size="13" lengthAdjust="spacing" textLength="94.7769" x="63.02" y="307.0669">Data Available</text></g><!--link Transmitting to Active--><g class="link" data-entity-1="Transmitting" data-entity-2="Active" data-source-line="9" data-uid="lnk14" id="link_Transmitting_Active"><path d="M199.15,340.69 C198.31,326.98 197.59,309.54 198.02,294 C198.29,284.33 198.4639,279.6894 199.0139,270.4394" fill="none" id="Transmitting-to-Active" style="stroke:#181818;stroke-width:1;"/><polygon fill="#181818" points="199.37,264.45,194.8429,273.1967,199.0732,269.4412,202.8288,273.6716,199.37,264.45" style="stroke:#181818;stroke-width:1;"/><text fill="#000000" font-family="sans-serif" font-size="13" lengthAdjust="spacing" textLength="152.6738" x="199.02" y="307.0669">Transmission Complete</text></g><!--link Transmitting to Error--><g class="link" data-entity-1="Transmitting" data-entity-2="Error" data-source-line="10" data-uid="lnk15" id="link_Transmitting_Error"><path d="M201.6,391.5 C203.01,406.09 206.72,424.36 216.02,438 C229.27,457.44 246.6746,468.9647 264.8746,477.9047" fill="none" id="Transmitting-to-Error" style="stroke:#181818;stroke-width:1;"/><polygon fill="#181818" points="270.26,480.55,263.9455,472.9917,265.7722,478.3456,260.4184,480.1722,270.26,480.55" style="stroke:#181818;stroke-width:1;"/><text fill="#000000" font-family="sans-serif" font-size="13" lengthAdjust="spacing" textLength="134.272" x="217.02" y="434.0669">Transmission Failure</text></g><!--SRC=[TL6nJiGm3Dtp5PwHJkmTa2gEarWO2X83OZ29UnUfJOx4gNH_ZvEK8mMnH4cU_VpUyzlDE-nsT_1e9b8gd-NPQxOBTN3ldIEvUmS3VIQAh2fqRUfWRwEkPIts488F7HmmJGnxOe79gFAxcJ2GzWk52pmdhId6CKrDLPqmK2GMBVECphH3NWAwE5jcwuuY11cXNz1E-25kMd0pSWLYpBQ4zJo9lB_bguDDzK78Kv2ad6U2O8yd1Z_Mz02UF60LfqLhSbPZZawGLxI5TnHV-fgf8cSWC_tcgqgbhybViXTRDfuaHf18q5o0FV0g-pQGfjpq7sUn8vrr8oB2sC9hldS3q3FJV2v2mxgM7xel]--></g></svg>