<svg xmlns="http://www.w3.org/2000/svg" xmlns:xlink="http://www.w3.org/1999/xlink" contentStyleType="text/css" data-diagram-type="SEQUENCE" height="599px" preserveAspectRatio="none" style="width:569px;height:599px;background:#FFFFFF;" version="1.1" viewBox="0 0 569 599" width="569px" zoomAndPan="magnify"><defs/><g><g><title>Provider System</title><rect fill="#000000" fill-opacity="0.00000" height="528.2578" width="8" x="65.4253" y="36.2969"/><line style="stroke:#181818;stroke-width:0.5;stroke-dasharray:5,5;" x1="69" x2="69" y1="36.2969" y2="564.5547"/></g><g><title>Transport Layer</title><rect fill="#000000" fill-opacity="0.00000" height="528.2578" width="8" x="255.2832" y="36.2969"/><line style="stroke:#181818;stroke-width:0.5;stroke-dasharray:5,5;" x1="258.666" x2="258.666" y1="36.2969" y2="564.5547"/></g><g><title>Consumer System</title><rect fill="#000000" fill-opacity="0.00000" height="528.2578" width="8" x="466.7358" y="36.2969"/><line style="stroke:#181818;stroke-width:0.5;stroke-dasharray:5,5;" x1="470.7139" x2="470.7139" y1="36.2969" y2="564.5547"/></g><g class="participant participant-head" data-participant="Provider"><rect fill="#E2E2F0" height="30.2969" rx="2.5" ry="2.5" style="stroke:#181818;stroke-width:0.5;" width="128.8506" x="5" y="5"/><text fill="#000000" font-family="sans-serif" font-size="14" lengthAdjust="spacing" textLength="114.8506" x="12" y="24.9951">Provider System</text></g><g class="participant participant-tail" data-participant="Provider"><rect fill="#E2E2F0" height="30.2969" rx="2.5" ry="2.5" style="stroke:#181818;stroke-width:0.5;" width="128.8506" x="5" y="563.5547"/><text fill="#000000" font-family="sans-serif" font-size="14" lengthAdjust="spacing" textLength="114.8506" x="12" y="583.5498">Provider System</text></g><g class="participant participant-head" data-participant="Transport"><rect fill="#E2E2F0" height="30.2969" rx="2.5" ry="2.5" style="stroke:#181818;stroke-width:0.5;" width="125.2344" x="196.666" y="5"/><text fill="#000000" font-family="sans-serif" font-size="14" lengthAdjust="spacing" textLength="111.2344" x="203.666" y="24.9951">Transport Layer</text></g><g class="participant participant-tail" data-participant="Transport"><rect fill="#E2E2F0" height="30.2969" rx="2.5" ry="2.5" style="stroke:#181818;stroke-width:0.5;" width="125.2344" x="196.666" y="563.5547"/><text fill="#000000" font-family="sans-serif" font-size="14" lengthAdjust="spacing" textLength="111.2344" x="203.666" y="583.5498">Transport Layer</text></g><g class="participant participant-head" data-participant="Consumer"><rect fill="#E2E2F0" height="30.2969" rx="2.5" ry="2.5" style="stroke:#181818;stroke-width:0.5;" width="142.0439" x="399.7139" y="5"/><text fill="#000000" font-family="sans-serif" font-size="14" lengthAdjust="spacing" textLength="128.0439" x="406.7139" y="24.9951">Consumer System</text></g><g class="participant participant-tail" data-participant="Consumer"><rect fill="#E2E2F0" height="30.2969" rx="2.5" ry="2.5" style="stroke:#181818;stroke-width:0.5;" width="142.0439" x="399.7139" y="563.5547"/><text fill="#000000" font-family="sans-serif" font-size="14" lengthAdjust="spacing" textLength="128.0439" x="406.7139" y="583.5498">Consumer System</text></g><g class="message" data-participant-1="Provider" data-participant-2="Transport"><polygon fill="#181818" points="247.2832,63.4297,257.2832,67.4297,247.2832,71.4297,251.2832,67.4297" style="stroke:#181818;stroke-width:1;"/><line style="stroke:#181818;stroke-width:1;" x1="69.4253" x2="253.2832" y1="67.4297" y2="67.4297"/><text fill="#000000" font-family="sans-serif" font-size="13" lengthAdjust="spacing" textLength="111.2744" x="76.4253" y="62.3638">Connect Request</text></g><g class="message" data-participant-1="Transport" data-participant-2="Consumer"><polygon fill="#181818" points="458.7358,92.5625,468.7358,96.5625,458.7358,100.5625,462.7358,96.5625" style="stroke:#181818;stroke-width:1;"/><line style="stroke:#181818;stroke-width:1;" x1="259.2832" x2="464.7358" y1="96.5625" y2="96.5625"/><text fill="#000000" font-family="sans-serif" font-size="13" lengthAdjust="spacing" textLength="168.3779" x="266.2832" y="91.4966">Forward Connect Request</text></g><g class="message" data-participant-1="Consumer" data-participant-2="Transport"><polygon fill="#181818" points="270.2832,121.6953,260.2832,125.6953,270.2832,129.6953,266.2832,125.6953" style="stroke:#181818;stroke-width:1;"/><line style="stroke:#181818;stroke-width:1;" x1="264.2832" x2="469.7358" y1="125.6953" y2="125.6953"/><text fill="#000000" font-family="sans-serif" font-size="13" lengthAdjust="spacing" textLength="170.3901" x="276.2832" y="120.6294">Connect Acknowledgment</text></g><g class="message" data-participant-1="Transport" data-participant-2="Provider"><polygon fill="#181818" points="80.4253,150.8281,70.4253,154.8281,80.4253,158.8281,76.4253,154.8281" style="stroke:#181818;stroke-width:1;"/><line style="stroke:#181818;stroke-width:1;" x1="74.4253" x2="258.2832" y1="154.8281" y2="154.8281"/><text fill="#000000" font-family="sans-serif" font-size="13" lengthAdjust="spacing" textLength="138.5566" x="86.4253" y="149.7622">Forward Connect Ack</text></g><g class="message" data-participant-1="Provider" data-participant-2="Transport"><polygon fill="#181818" points="247.2832,179.9609,257.2832,183.9609,247.2832,187.9609,251.2832,183.9609" style="stroke:#181818;stroke-width:1;"/><line style="stroke:#181818;stroke-width:1;" x1="69.4253" x2="253.2832" y1="183.9609" y2="183.9609"/><text fill="#000000" font-family="sans-serif" font-size="13" lengthAdjust="spacing" textLength="165.8579" x="76.4253" y="178.895">Status Message (0x0001)</text></g><g class="message" data-participant-1="Transport" data-participant-2="Consumer"><polygon fill="#181818" points="458.7358,209.0938,468.7358,213.0938,458.7358,217.0938,462.7358,213.0938" style="stroke:#181818;stroke-width:1;"/><line style="stroke:#181818;stroke-width:1;" x1="259.2832" x2="464.7358" y1="213.0938" y2="213.0938"/><text fill="#000000" font-family="sans-serif" font-size="13" lengthAdjust="spacing" textLength="159.6372" x="266.2832" y="208.0278">Forward Status Message</text></g><g class="message" data-participant-1="Consumer" data-participant-2="Transport"><polygon fill="#181818" points="270.2832,238.2266,260.2832,242.2266,270.2832,246.2266,266.2832,242.2266" style="stroke:#181818;stroke-width:1;"/><line style="stroke:#181818;stroke-width:1;" x1="264.2832" x2="469.7358" y1="242.2266" y2="242.2266"/><text fill="#000000" font-family="sans-serif" font-size="13" lengthAdjust="spacing" textLength="112.5059" x="276.2832" y="237.1606">Acknowledgment</text></g><g class="message" data-participant-1="Transport" data-participant-2="Provider"><polygon fill="#181818" points="80.4253,267.3594,70.4253,271.3594,80.4253,275.3594,76.4253,271.3594" style="stroke:#181818;stroke-width:1;"/><line style="stroke:#181818;stroke-width:1;" x1="74.4253" x2="258.2832" y1="271.3594" y2="271.3594"/><text fill="#000000" font-family="sans-serif" font-size="13" lengthAdjust="spacing" textLength="80.6724" x="86.4253" y="266.2935">Forward Ack</text></g><g class="message" data-participant-1="Provider" data-participant-2="Transport"><polygon fill="#181818" points="247.2832,296.4922,257.2832,300.4922,247.2832,304.4922,251.2832,300.4922" style="stroke:#181818;stroke-width:1;"/><line style="stroke:#181818;stroke-width:1;" x1="69.4253" x2="253.2832" y1="300.4922" y2="300.4922"/><text fill="#000000" font-family="sans-serif" font-size="13" lengthAdjust="spacing" textLength="155.4731" x="76.4253" y="295.4263">Data Message (0x0002)</text></g><g class="message" data-participant-1="Transport" data-participant-2="Consumer"><polygon fill="#181818" points="458.7358,325.625,468.7358,329.625,458.7358,333.625,462.7358,329.625" style="stroke:#181818;stroke-width:1;"/><line style="stroke:#181818;stroke-width:1;" x1="259.2832" x2="464.7358" y1="329.625" y2="329.625"/><text fill="#000000" font-family="sans-serif" font-size="13" lengthAdjust="spacing" textLength="149.2524" x="266.2832" y="324.5591">Forward Data Message</text></g><g class="message" data-participant-1="Consumer" data-participant-2="Consumer"><line style="stroke:#181818;stroke-width:1;" x1="470.7358" x2="512.7358" y1="358.7578" y2="358.7578"/><line style="stroke:#181818;stroke-width:1;" x1="512.7358" x2="512.7358" y1="358.7578" y2="371.7578"/><line style="stroke:#181818;stroke-width:1;" x1="471.7358" x2="512.7358" y1="371.7578" y2="371.7578"/><polygon fill="#181818" points="481.7358,367.7578,471.7358,371.7578,481.7358,375.7578,477.7358,371.7578" style="stroke:#181818;stroke-width:1;"/><text fill="#000000" font-family="sans-serif" font-size="13" lengthAdjust="spacing" textLength="85.0015" x="477.7358" y="353.6919">Process Data</text></g><g class="message" data-participant-1="Consumer" data-participant-2="Transport"><polygon fill="#181818" points="270.2832,396.8906,260.2832,400.8906,270.2832,404.8906,266.2832,400.8906" style="stroke:#181818;stroke-width:1;"/><line style="stroke:#181818;stroke-width:1;" x1="264.2832" x2="469.7358" y1="400.8906" y2="400.8906"/><text fill="#000000" font-family="sans-serif" font-size="13" lengthAdjust="spacing" textLength="187.4526" x="276.2832" y="395.8247">Response Message (0x0003)</text></g><g class="message" data-participant-1="Transport" data-participant-2="Provider"><polygon fill="#181818" points="80.4253,426.0234,70.4253,430.0234,80.4253,434.0234,76.4253,430.0234" style="stroke:#181818;stroke-width:1;"/><line style="stroke:#181818;stroke-width:1;" x1="74.4253" x2="258.2832" y1="430.0234" y2="430.0234"/><text fill="#000000" font-family="sans-serif" font-size="13" lengthAdjust="spacing" textLength="120.123" x="86.4253" y="424.9575">Forward Response</text></g><g class="message" data-participant-1="Provider" data-participant-2="Transport"><polygon fill="#181818" points="247.2832,455.1563,257.2832,459.1563,247.2832,463.1563,251.2832,459.1563" style="stroke:#181818;stroke-width:1;"/><line style="stroke:#181818;stroke-width:1;" x1="69.4253" x2="253.2832" y1="459.1563" y2="459.1563"/><text fill="#000000" font-family="sans-serif" font-size="13" lengthAdjust="spacing" textLength="129.7397" x="76.4253" y="454.0903">Disconnect Request</text></g><g class="message" data-participant-1="Transport" data-participant-2="Consumer"><polygon fill="#181818" points="458.7358,484.2891,468.7358,488.2891,458.7358,492.2891,462.7358,488.2891" style="stroke:#181818;stroke-width:1;"/><line style="stroke:#181818;stroke-width:1;" x1="259.2832" x2="464.7358" y1="488.2891" y2="488.2891"/><text fill="#000000" font-family="sans-serif" font-size="13" lengthAdjust="spacing" textLength="129.3208" x="266.2832" y="483.2231">Forward Disconnect</text></g><g class="message" data-participant-1="Consumer" data-participant-2="Transport"><polygon fill="#181818" points="270.2832,513.4219,260.2832,517.4219,270.2832,521.4219,266.2832,517.4219" style="stroke:#181818;stroke-width:1;"/><line style="stroke:#181818;stroke-width:1;" x1="264.2832" x2="469.7358" y1="517.4219" y2="517.4219"/><text fill="#000000" font-family="sans-serif" font-size="13" lengthAdjust="spacing" textLength="99.9185" x="276.2832" y="512.356">Disconnect Ack</text></g><g class="message" data-participant-1="Transport" data-participant-2="Provider"><polygon fill="#181818" points="80.4253,542.5547,70.4253,546.5547,80.4253,550.5547,76.4253,546.5547" style="stroke:#181818;stroke-width:1;"/><line style="stroke:#181818;stroke-width:1;" x1="74.4253" x2="258.2832" y1="546.5547" y2="546.5547"/><text fill="#000000" font-family="sans-serif" font-size="13" lengthAdjust="spacing" textLength="157.022" x="86.4253" y="541.4888">Forward Disconnect Ack</text></g><!--SRC=[bPBB2i9034Nt_OhWIXT2rPqBGHHN2gB-G9W6ATgPEabz_BsZC7tfMDoLSExDoT0ShQGgpL4BzBRMNDE4BEmVB9Jr01dyBChhvC6YvjnOWJK-oBx9SjP45qPpaJLB_IoAofN3MLKmVG6QbC2EBWMnHDK-n_dq55R6tj0c7tYvytlhN9sqkPqfEMQaM-LUwBFSfOA-Uq4f63R4Z4U2VdoFutWqwF9knaBQ_-d-qboYO4jot2bP3pKKAzIjKmvuew4hTkG-D5Dh_sJGTP0FXgzAMVttlrI9a6sjy_MW7Oej-Wa0]--></g></svg>